<svg width="36" height="36" viewBox="0 0 36 36" fill="none" xmlns="http://www.w3.org/2000/svg">
<path d="M4.91288 3.01892C6.65335 3.84981 8.21027 4.57912 9.60265 5.24429C9.82693 5.35143 9.16207 9.13883 9.16207 9.13883C9.16207 9.13883 10.7068 5.77536 10.9222 5.88033C12.3214 6.56242 13.5333 7.18316 14.5823 7.79071C14.7583 7.89264 13.8654 12.7239 13.8654 12.7239C13.8654 12.7239 15.442 8.30818 15.6074 8.41448C16.1093 8.73709 16.5672 9.06066 16.9848 9.39252C17.0679 9.45861 14.6485 17.0554 14.6485 17.0554C14.6485 17.0554 17.3927 9.72999 17.4719 9.79975C20.8986 12.8193 21.2604 16.728 21.1711 26.6727C21.1711 26.6727 11.3425 24.725 6.27101 20.0063C6.21011 19.9496 13.0214 18.6947 13.0214 18.6947C13.0214 18.6947 5.95416 19.7021 5.8875 19.6348C4.9458 18.684 4.20041 17.6264 3.76038 16.4559C3.28247 15.1847 3.12658 13.6786 3.1587 12.1426C3.16175 11.9966 8.57471 14.1447 8.57471 14.1447C8.57471 14.1447 3.18697 11.4133 3.19627 11.268C3.4622 7.11125 4.91288 3.01892 4.91288 3.01892Z" fill="#F84C6B"/>
<path opacity="0.1" d="M4.91288 3.01892C6.65335 3.84981 8.21027 4.57912 9.60265 5.24429C9.82693 5.35143 9.16207 9.13883 9.16207 9.13883C9.16207 9.13883 10.7068 5.77536 10.9222 5.88033C12.3214 6.56242 13.5333 7.18316 14.5823 7.79071C14.7583 7.89264 13.8654 12.7239 13.8654 12.7239C13.8654 12.7239 15.442 8.30818 15.6074 8.41448C16.1093 8.73709 16.5672 9.06066 16.9848 9.39252C17.0679 9.45861 14.6485 17.0554 14.6485 17.0554C14.6485 17.0554 17.3927 9.72999 17.4719 9.79975C20.8986 12.8193 21.2604 16.728 21.1711 26.6727C13.329 19.2172 6.61893 11.4236 4.91288 3.01892Z" fill="black"/>
<path d="M31.3018 5.27194C29.2429 6.14031 27.4019 6.90081 25.7547 7.59605C25.4894 7.70804 26.0532 12.1722 26.0532 12.1722C26.0532 12.1722 24.4483 8.15157 24.1935 8.26154C22.5375 8.97615 21.1016 9.6301 19.8548 10.2782C19.6456 10.387 20.4166 16.0842 20.4166 16.0842C20.4166 16.0842 18.8321 10.8322 18.635 10.9467C18.0367 11.2941 17.4893 11.6452 16.9882 12.0084C16.8884 12.0807 19.2756 21.099 19.2756 21.099C19.2756 21.099 16.4978 12.3787 16.4024 12.4555C12.2738 15.7818 11.643 20.3273 11.2067 31.9518C11.2067 31.9518 22.6846 30.2543 28.8086 25.0396C28.8822 24.977 21.0693 23.11 21.0693 23.11C21.0693 23.11 29.1917 24.7028 29.2725 24.6281C30.4137 23.5726 31.3335 22.3808 31.9062 21.0391C32.5281 19.582 32.7902 17.8315 32.8364 16.035C32.8408 15.8643 26.4612 18.0556 26.4612 18.0556C26.4612 18.0556 32.8433 15.1813 32.8404 15.0109C32.7582 10.1387 31.3018 5.27194 31.3018 5.27194Z" fill="#18DF80"/>
<path opacity="0.1" d="M31.3018 5.27194C29.2429 6.14031 27.4019 6.90081 25.7547 7.59605C25.4894 7.70804 26.0532 12.1722 26.0532 12.1722C26.0532 12.1722 24.4483 8.15157 24.1935 8.26154C22.5375 8.97615 21.1016 9.6301 19.8548 10.2782C19.6456 10.387 20.4166 16.0842 20.4166 16.0842C20.4166 16.0842 18.8321 10.8322 18.635 10.9467C18.0367 11.2941 17.4893 11.6452 16.9882 12.0084C16.8884 12.0807 19.2756 21.099 19.2756 21.099C19.2756 21.099 16.4978 12.3787 16.4024 12.4555C12.2738 15.7818 11.643 20.3273 11.2067 31.9518C20.685 23.7023 28.8718 14.9914 31.3018 5.27194Z" fill="black"/>
</svg>
